# xmcd
# Copyright (C) 1995-1998 Ti Kan
#
# Track frame offsets:
#       150
#       18085
#       35469
#       58246
#       69943
#       86005
#       97755
#       112153
#       126026
#       148715
#       161169
#       172845
#       189584
#
# Disc length: 2737 seconds
#
# Revision: 0
# Processed by: cddbd v1.5.2PL0 Copyright (c) Steve Scherf et al.
# Submitted via: CD-Import v1.0
#
DISCID=a90aaf0d
DTITLE=Napoleon Washington - Mud and Grace
DYEAR=2010
DGENRE=
TTITLE0=Come Down, Blues
TTITLE1=Ashes From Ashes
TTITLE2=Blue Curls Of Smoke
TTITLE3=Mud and Grace
TTITLE4=The Day I Get In Monroe
TTITLE5=Salt Water
TTITLE6=Peephole Dawn
TTITLE7=I'll Be Poison
TTITLE8=Big River
TTITLE9=The Top Of The Shelf
TTITLE10=Write Yourself A Letter
TTITLE11=My Love Is Like A Tree
TTITLE12=Some Say They Have To
EXTD=
EXTT0=
EXTT1=
EXTT2=
EXTT3=
EXTT4=
EXTT5=
EXTT6=
EXTT7=
EXTT8=
EXTT9=
EXTT10=
EXTT11=
EXTT12=
PLAYORDER=
